<?xml version="1.0" encoding="UTF-8"?>
<svg xmlns="http://www.w3.org/2000/svg" xmlns:xlink="http://www.w3.org/1999/xlink" width="375pt" height="374.999991pt" viewBox="0 0 375 374.999991" version="1.2">
<g id="surface1">
<path style=" stroke:none;fill-rule:nonzero;fill:rgb(98.039246%,69.018555%,1.959229%);fill-opacity:1;" d="M 194.761719 16.808594 L 228.382812 122.667969 C 229.1875 125.089844 231.339844 126.4375 233.761719 126.4375 L 352.640625 125.628906 C 358.019531 125.628906 360.171875 132.363281 355.867188 135.597656 L 259.042969 204.820312 C 257.160156 206.167969 256.351562 208.859375 257.160156 211.015625 L 294.8125 323.875 C 296.425781 328.992188 290.78125 333.300781 286.476562 330.070312 L 191.804688 260.847656 C 188.84375 258.691406 185.347656 258.691406 182.390625 260.847656 L 87.984375 330.339844 C 83.683594 333.570312 77.765625 329.261719 79.648438 324.144531 L 117.300781 211.285156 C 118.109375 209.128906 117.300781 206.4375 115.417969 205.089844 L 18.59375 135.863281 C 14.289062 132.632812 16.441406 125.898438 21.820312 125.898438 L 140.699219 126.707031 C 143.121094 126.707031 145.273438 125.089844 146.082031 122.9375 L 179.429688 16.808594 C 182.121094 9 192.339844 9 194.761719 16.808594 Z M 194.761719 16.808594 "/>
<path style=" stroke:none;fill-rule:nonzero;fill:rgb(74.508667%,29.40979%,85.879517%);fill-opacity:1;" d="M 251.589844 30.558594 L 243.46875 141.328125 C 243.316406 143.878906 244.8125 145.929688 247.058594 146.828125 L 357.730469 190.25 C 362.722656 192.25 362.21875 199.300781 357.023438 200.703125 L 241.40625 228.992188 C 239.160156 229.542969 237.410156 231.746094 237.359375 234.046875 L 230.378906 352.816406 C 229.976562 358.167969 223.132812 360.070312 220.335938 355.46875 L 158.164062 256.023438 C 156.21875 252.925781 152.972656 251.625 149.425781 252.527344 L 35.957031 281.964844 C 30.761719 283.367188 26.871094 277.167969 30.519531 273.117188 L 107.414062 182.328125 C 108.960938 180.628906 109.214844 177.828125 107.96875 175.878906 L 43.796875 75.632812 C 41.003906 71.03125 45.5 65.578125 50.496094 67.578125 L 160.5625 112.5 C 162.8125 113.402344 165.410156 112.699219 166.957031 111 L 237.355469 24.863281 C 242.753906 18.609375 252.242188 22.410156 251.589844 30.558594 Z M 251.589844 30.558594 "/>
<path style=" stroke:none;fill-rule:nonzero;fill:rgb(13.328552%,54.508972%,90.19928%);fill-opacity:1;" d="M 124.496094 30.066406 L 202.175781 109.449219 C 203.988281 111.25 206.515625 111.484375 208.675781 110.394531 L 314.460938 56.152344 C 319.265625 53.730469 324.21875 58.773438 321.832031 63.597656 L 266.542969 169.003906 C 265.46875 171.050781 265.960938 173.820312 267.648438 175.382812 L 352.082031 259.203125 C 355.828125 263.046875 352.726562 269.4375 347.429688 268.488281 L 231.726562 249.300781 C 228.113281 248.710938 224.992188 250.285156 223.320312 253.539062 L 170.3125 358.09375 C 167.925781 362.917969 160.703125 361.734375 160.078125 356.316406 L 142.890625 238.589844 C 142.640625 236.300781 140.707031 234.261719 138.417969 233.90625 L 20.796875 215.6875 C 15.5 214.738281 14.386719 207.757812 19.191406 205.335938 L 125.703125 152.535156 C 127.867188 151.445312 129.058594 149.03125 128.808594 146.746094 L 110.808594 36.96875 C 109.695312 28.78125 118.820312 24.179688 124.496094 30.066406 Z M 124.496094 30.066406 "/>
<path style=" stroke:none;fill-rule:nonzero;fill:rgb(100%,100%,100%);fill-opacity:1;" d="M 132.519531 148.34375 L 177.875 157.019531 C 178.921875 157.203125 179.839844 156.683594 180.320312 155.800781 L 203.570312 112.179688 C 204.636719 110.214844 207.523438 110.761719 207.851562 112.976562 L 213.980469 162.082031 C 214.101562 163.039062 214.925781 163.867188 215.871094 164 L 264.589844 172.585938 C 266.777344 173.011719 267.234375 175.929688 265.203125 176.863281 L 221.144531 197.761719 C 219.769531 198.414062 219.078125 199.691406 219.277344 201.203125 L 225.984375 249.476562 C 226.3125 251.691406 223.566406 253 222.070312 251.296875 L 188.269531 215.179688 C 187.640625 214.457031 186.496094 214.21875 185.632812 214.640625 L 141.148438 236.324219 C 139.113281 237.257812 137.078125 235.136719 138.144531 233.171875 L 161.984375 189.871094 C 162.464844 188.988281 162.300781 187.882812 161.671875 187.160156 L 129.480469 153.945312 C 127.160156 151.417969 129.183594 147.679688 132.519531 148.34375 Z M 132.519531 148.34375 "/>
</g>
</svg>
